# xmcd CD database file
#
# Track frame offsets:
#	150
#	10695
#	18834
#	36214
#	52223
#	62713
#	81143
#	94677
#	103873
#	119528
#	131549
#	143960
#
# Disc length: 2068 seconds
#
# Revision: 0
# Processed by: cddbd v1.5.1PL0 Copyright (c) Steve Scherf et al.
# Submitted via: CDex 1.51
#
DISCID=a008120c
DTITLE=De Biltstars - Our favorite things
DYEAR=2003
DGENRE=Jazz
TTITLE0=It don't mean a thing
TTITLE1=Smile
TTITLE2=Food glorious food
TTITLE3=Journey to brazil
TTITLE4=Here's that rainy day
TTITLE5=Say
TTITLE6=Love's day
TTITLE7=Bebop
TTITLE8=My favourite things
TTITLE9=It's allright with me
TTITLE10=And I love her
TTITLE11=Marry a woman uglier than you
EXTD=YEAR: 2003
EXTT0=
EXTT1=
EXTT2=
EXTT3=
EXTT4=
EXTT5=
EXTT6=
EXTT7=
EXTT8=
EXTT9=
EXTT10=
EXTT11=
PLAYORDER=
